<svg xmlns="http://www.w3.org/2000/svg" version="1.1" width="600px" height="600px" viewBox="0 0 200 200" style="overflow:hidden!important;"><g id="svga-group-wrapper"><g id="svga-group-backs-single"><path id="SvgjsPath8924" d="M0 0h200v200H0V0z" fill="#ecf0f1" stroke-width="none" opacity="1"></path></g><g id="svga-group-humanwrap-move" transform="matrix(1,0,0,1,0,0)"><g id="svga-group-humanwrap"><g id="svga-group-hair-back-move" transform="matrix(1,0,0,1,0,0)"><g id="svga-group-hair-back"><path id="SvgjsPath9152" d="M121 39.3s4.6-18-21.5-18.6c0 0-6.7-6.5-20.5-1.7 0 0-12.7.4-19.8 11.7 0 0-15 6.3-15.9 32.4 0 0-5.2 12.7 4.4 33.8s.4 39.5-4.4 48-7.3 26.7 6.9 36.8 10.4 21.7 9.4 24.4c0 0 12.5-5 13.4-12.7s-3.1-6.5-1.7-12.1 7.1-5.4 10.2-14.4c3.1-9 0-23-1.9-31.5s-5.4-42.8 3.8-55.1 25.3-23 30.7-28.4c5.4-5.4 6.9-12.6 6.9-12.6z" fill="#cea57c" stroke-width="none" opacity="1" stroke="none"></path><path id="SvgjsPath9153" d="M101.4 30s-1.1-14.2-20.7-10.3S57 51 59.1 62.7c0 0 .4-24.5 11.5-34.3s26.3-7.6 30.8 1.6z" fill="#ddbc9b" stroke-width="none" opacity="1" stroke="none"></path><path id="SvgjsPath9154" d="M83.5 37.7S82 35.1 85 31.6c3-3.5 15.7-4.9 21.4-2.7s4.8 3.7 5 4.7c0 0-18-.3-27.9 4.1z" fill="#000000" stroke-width="none" opacity="1"></path></g></g><g id="svga-group-humanbody-back"><path id="SvgjsPath8991" d="m168.5 219.5-1.7-21.5s.7-9-8.8-15.3-23.4-10.1-29.5-14.2c-6.1-4.1-9.2-4.5-9-16.9s.9-40.3.9-40.3H79.6s.7 27.9.9 40.3c.2 12.4-2.9 12.8-9 16.9-6.1 4.1-20 7.9-29.5 14.2S33.2 198 33.2 198l-1.6 21.5h136.9z" fill="#f3d4cf" stroke-width="none" opacity="1" stroke="none"></path></g><g id="svga-group-chinshadow-single"><path id="SvgjsPath8987" d="M80.4 155.4c5.9 5.8 12.6 9.3 19.6 9.3s13.7-3.5 19.6-9.3c-.1-1.1-.1-2.4-.1-3.8.2-12.4.9-40.3.9-40.3H79.6s.7 27.9.9 40.3c0 1.4 0 2.7-.1 3.8z" fill="#d4958a" stroke-width="none" opacity="0.65" stroke="none"></path></g><g id="svga-group-humanbody-front"><path id="SvgjsPath8992" d="M73.8 175.9c5.1 2.9 11.8 5.2 17.6 5.7.4 0 .4-.6.1-.7-2.8-1.1-5.9-1.7-8.8-2.6-2.9-.9-5.8-2-8.8-2.7-.1-.1-.3.2-.1.3zm35.2 6.2c5.3-.6 11.3-3 15.9-5.8.3-.2.1-.6-.2-.5-2.6.9-5.2 2-7.8 2.9-2.6.9-5.4 1.5-8 2.5-.5.1-.5.9.1.9z" fill="#d4958a" stroke-width="none" opacity="1" stroke="none"></path><path id="SvgjsPath8993" d="m168.4 219.4-2.1-21.4c0-2.2-.5-4.5-1.5-6.6-.9-2.1-2.3-3.9-3.9-5.5s-3.5-2.8-5.5-4c-2-1.2-4.1-2.2-6.2-3.1-4.2-1.9-8.6-3.6-12.9-5.4-2.2-.9-4.3-1.9-6.4-3-1.1-.6-2.1-1.2-3-1.9-1-.6-2-1.2-3-1.9s-2-1.5-2.8-2.6c-.8-1-1.3-2.2-1.7-3.4-.7-2.4-.8-4.8-.8-7.2 0-4.7.2-9.4.3-14.1.2-9.4.6-18.7.9-28l.6.6-20.4-.2-20.4-.1.3-.3.7 28c.1 4.7.3 9.3.4 14 0 2.4-.1 4.7-.8 7.1-.3 1.2-.9 2.3-1.6 3.3-.8 1-1.7 1.8-2.7 2.5s-2 1.3-2.9 2c-.9.6-1.9 1.3-3 1.9-2.1 1.2-4.2 2.1-6.4 3.1-4.3 1.9-8.6 3.6-12.8 5.6-2.1 1-4.2 2.1-6.1 3.2-2 1.2-3.8 2.4-5.4 4-1.6 1.6-2.9 3.4-3.8 5.4-.4 1-.8 2.1-1 3.1-.2 1.1-.4 2.2-.3 3.2v.2l-1.5 21.5-1-1.1 34 .1c11.3 0 22.7.1 34.1.2l34.2.3 34.4.5zm.2.2-34 .4-34.2.3c-11.4.1-22.9.2-34.4.2l-34.4.1h-1.1l.1-1.1 1.7-21.5v.1c-.1-5.1 2.2-9.8 5.7-13.3 1.7-1.7 3.8-3.1 5.8-4.3 2-1.2 4.2-2.2 6.3-3.2 4.3-2 8.7-3.7 13-5.4 2.1-.9 4.3-1.8 6.3-2.9 1-.5 1.9-1.1 3-1.8 1-.6 2-1.2 2.9-1.9.9-.6 1.8-1.4 2.4-2.2.7-.9 1.2-1.9 1.5-2.9.6-2.1.8-4.5.8-6.8 0-4.6-.1-9.3-.2-14l-.6-28v-.3h.3l20.4-.1 20.4-.2h.6v.6c-.1 9.3-.2 18.7-.4 28-.1 4.7-.2 9.4-.2 14 .1 2.3.2 4.6.8 6.7.3 1.1.8 2 1.4 2.9.6.8 1.4 1.6 2.4 2.2.9.6 1.9 1.3 2.9 1.9 1 .7 1.9 1.3 2.9 1.8 2 1.1 4.1 2.1 6.3 3 4.3 1.8 8.6 3.6 12.9 5.6 2.1 1 4.2 2.1 6.2 3.3 2 1.2 4 2.6 5.7 4.3 3.4 3.4 5.6 8.1 5.4 13v-.1l1.4 21.6zm-112.8-.4 1.9-13.8.1 13.8h-2zm88.6 0-1.9-13.8-.1 13.8h2z" fill="#c5796d" stroke-width="none" opacity="1" stroke="none"></path></g><g id="svga-group-clothes-single"><path id="SvgjsPath9131" d="m143.2 220 .1-3.6 26.8-2.6s-1.2-16.5-1.9-20-2.3-8.6-12.1-14-27.7-12.4-27.7-12.4c-31.6 30.5-56-.1-56.7 0 0 0-17.9 7-27.7 12.4s-11.4 10.5-12.1 14-1.9 20-1.9 20l26.8 2.6v3.6h86.4z" fill="#09aac5" stroke-width="none" opacity="1"></path><path id="SvgjsPath9132" d="M170.7 213.8c-.4-5.8-.7-11.6-1.3-17.4-.3-2.9-.9-6-2.6-8.6-1.6-2.6-3.9-4.6-6.4-6.3-2.4-1.7-5.1-3.1-7.7-4.4-2.6-1.3-5.3-2.5-7.9-3.7-5.3-2.4-10.7-4.5-16.2-6.6-.2-.1-.5 0-.7.1-3.8 3.8-8 7.1-12.7 9.6-4.7 2.5-9.9 4-15.2 4.1-2.7 0-5.3-.3-7.9-.9-2.6-.7-5.1-1.7-7.4-2.9s-4.6-2.7-6.7-4.3c-1.1-.8-2.1-1.7-3.1-2.6-.5-.4-1-.9-1.4-1.4l-.7-.7-.4-.4-.2-.2-.1-.1-.1-.1s-.2-.1-.3-.1h-.1c-5.4 2.1-10.8 4.2-16.2 6.5-2.7 1.1-5.3 2.3-8 3.6-2.6 1.3-5.2 2.6-7.7 4.3-2.4 1.7-4.8 3.7-6.4 6.3-1.7 2.6-2.4 5.7-2.7 8.6-.7 5.8-1.1 11.6-1.6 17.4 0 .5.4 1 .9 1.1l13.4 1.3 12.5 1.2v2.7c0 .6.5 1 1 1 7.3 0 14.5 0 21.8-.1l21.7-.2 43-.6.2-3.5 13.2-1 13.4-1.1c.4 0 .6-.3.6-.6zm-14.1.8-13.4 1.6c-.1 0-.2.1-.2.2l.1 3.6-43.4-.6-21.5-.2c-6.8-.1-13.6-.1-20.4-.1v-2.6c0-.5-.4-1-.9-1L43.5 214 31 212.9c.4-5.4.8-10.9 1.3-16.3.3-2.9.9-5.6 2.3-7.9 1.5-2.3 3.6-4.2 5.9-5.9 2.3-1.6 4.8-3 7.4-4.3s5.2-2.6 7.8-3.8c5.2-2.4 10.5-4.6 15.8-6.8l.2.1.4.3.7.7c.5.5 1 .9 1.5 1.4 1 .9 2.1 1.8 3.1 2.6 2.2 1.6 4.4 3.1 6.8 4.4 4.8 2.5 10.2 3.9 15.6 3.9s10.8-1.5 15.7-3.9c4.7-2.4 9-5.6 12.8-9.2 5.2 2.1 10.4 4.4 15.6 6.7 2.6 1.2 5.3 2.4 7.8 3.7 2.6 1.3 5.1 2.6 7.4 4.2 2.3 1.6 4.5 3.5 6 5.8s2.2 5 2.4 7.9c.3 2.9.6 5.8.9 8.6l.7 8.1-12.5 1.4zm-100.5-7.3-.3-1.1-.4-1c-.9-2.8-2.3-5.4-3.8-7.9-1.6-2.5-3.4-4.8-5.5-6.8s-4.4-3.9-7-5.1c1.2.8 2.3 1.7 3.4 2.6 1.1.9 2.1 1.9 3.1 3 1.9 2.1 3.7 4.4 5.2 6.8.4.6.7 1.2 1.1 1.8.4.6.7 1.2 1 1.9.3.6.7 1.3 1 1.9.3.7.6 1.3.9 2l.4 1 .4 1 .7 2c.5 1.4.8 2.8 1.3 4.1-.3-1.4-.5-2.9-.9-4.3l-.6-1.9zm92.9-9.9c-1.5 2.5-2.9 5.1-3.8 7.9l-.4 1-.3 1.1-.6 2.1c-.3 1.4-.6 2.8-.9 4.3.5-1.4.8-2.8 1.3-4.1l.7-2 .4-1 .4-1c.3-.6.6-1.3.9-2 .3-.6.6-1.3 1-1.9.3-.6.6-1.3 1-1.9.4-.6.7-1.2 1.1-1.8 1.5-2.4 3.3-4.7 5.2-6.8.9-1.1 2-2.1 3.1-3 1.1-1 2.2-1.9 3.4-2.6-2.6 1.3-4.9 3.1-7 5.1-2.1 1.8-3.9 4.2-5.5 6.6z" fill="#008fa6" stroke-width="none" opacity="1"></path></g><g id="svga-group-head" transform="matrix(1,0,0,1,0,0)"><g id="svga-group-ears-left-move" transform="matrix(1,0,0,1,0,0)"><g id="svga-group-ears-left"><path id="SvgjsPath8941" d="M64.2 96.3c-.2-.3-3.1-4-5.5-6.3-2.5-2.3-3.2-2.2-4.4-.8s-2.7 8.5-2.3 11.7 3.3 8.2 4.9 11c1.6 2.8 3.1 6.3 4.8 6 1.8-.3 4.2-4.3 5.3-7.3 1.2-3 .6-10.3-2.8-14.3z" fill="#f3d4cf" stroke-width="none" opacity="1" stroke="none"></path><path id="SvgjsPath8942" d="M67.9 104.8c.1.8.2 1.6.2 2.4s0 1.6-.2 2.4l-.3 1.2c-.1.4-.3.7-.4 1-.3.7-.6 1.3-.9 2-.7 1.2-1.4 2.4-2.4 3.4-.5.5-1 1-1.7 1.2-.3.1-.8.1-1.2 0-.4-.2-.7-.4-1-.7-1.2-1.2-1.8-2.6-2.5-4s-1.4-2.7-2.1-4.1c-.7-1.4-1.4-2.8-2-4.2-.3-.7-.6-1.4-.9-2.2-.3-.7-.5-1.5-.6-2.3-.2-1.6 0-3.2.1-4.7.2-1.5.4-3 .8-4.5.2-.7.4-1.5.7-2.2.1-.2.2-.3.3-.5s.2-.4.3-.5c.2-.3.5-.5.8-.7s.7-.3 1.1-.3c.4.1.7.2 1.1.4.6.4 1.1.9 1.7 1.4 2 2.1 3.7 4.5 5.6 6.8 1.8 2.5 2.9 5.6 3.5 8.7zm-9.6-14.6c-1-.8-2.2-1.7-2.9-1.2-.2.1-.4.3-.6.6-.1.1-.2.2-.2.3-.1.1-.1.3-.2.4-.3.6-.5 1.2-.7 1.9-.4 1.3-.8 2.8-1.1 4.2-.3 1.4-.5 3-.4 4.4.1.7.3 1.5.5 2.2l.9 2.1c.6 1.4 1.4 2.7 2.2 4s1.6 2.6 2.3 3.9c.4.7.7 1.3 1.1 1.9.4.6.8 1.2 1.2 1.6s.8.6 1.2.4.9-.5 1.3-1c.8-.9 1.5-2 2.2-3.2l.9-1.8c.1-.3.3-.6.4-.9l.2-.4c0-.2.1-.3.1-.5.3-1.3.3-2.8.3-4.3-.1-1.5-.3-3-.8-4.5s-1.2-2.9-2.1-4c-1.7-2.2-3.7-4.4-5.8-6.1z" fill="#e4b3ab" stroke-width="none" opacity="1" stroke="none"></path><path id="SvgjsPath8943" d="M54.1 102.4c-.2-2.1-.4-7.4.8-9 2-2.7 5.6 6.1 6.5 8.8 0 .1.1.2.1.2.1.3-.1.7-.4.6-.4-.2-.8-.6-1.2-.8-1.1-.5-1.5.4-1.2 1.7.4 1.7 1.3 2.7 2.1 4 .1.2 0 .4-.2.3-1.5-.9-3.3-4.2-2.9-6.2.3-1.8 1.8-1.7 2.9-.8-.7-1.6-1.4-3.1-2.3-4.5-.6-.9-1.1-1.9-2-2-1.1-.2-.9.3-1.1 1.7-.8 4.6-.3 9.7 2.4 13.7.1.1 0 .2-.1.1-2-2.2-3.1-4.7-3.4-7.8z" fill="#d4958a" stroke-width="none" opacity="1" stroke="none"></path></g></g><g id="svga-group-ears-right-move" transform="matrix(1,0,0,1,0,0)"><g id="svga-group-ears-right"><path id="SvgjsPath8944" d="M135.8 96.3c.2-.3 3.1-4 5.5-6.3 2.5-2.3 3.2-2.2 4.4-.8s2.7 8.5 2.3 11.7-3.3 8.2-4.9 11c-1.6 2.8-3.1 6.3-4.8 6-1.8-.3-4.2-4.3-5.3-7.3-1.2-3-.6-10.3 2.8-14.3z" fill="#f3d4cf" stroke-width="none" opacity="1" stroke="none"></path><path id="SvgjsPath8945" d="M135.7 96.3c1.8-2.3 3.5-4.7 5.6-6.8.5-.5 1-1 1.7-1.4.3-.2.7-.4 1.1-.4.4-.1.8.1 1.1.3.3.2.6.5.8.7.1.1.2.3.3.5s.2.3.3.5c.3.7.5 1.4.7 2.2.4 1.5.6 3 .8 4.5.1 1.5.3 3.1.1 4.7-.1.8-.3 1.6-.6 2.3-.3.8-.6 1.5-.9 2.2-.6 1.4-1.3 2.8-2 4.2-.7 1.4-1.4 2.7-2.1 4.1-.7 1.4-1.4 2.8-2.5 4-.3.3-.6.6-1 .7s-.9.2-1.2 0c-.7-.2-1.2-.7-1.7-1.2-1-1-1.7-2.2-2.4-3.4-.3-.6-.6-1.3-.9-2-.1-.3-.3-.7-.4-1l-.3-1.2c-.1-.8-.2-1.6-.2-2.4s.1-1.6.2-2.4c.5-3.3 1.6-6.4 3.5-8.7zm.1.1c-.9 1.1-1.6 2.5-2.1 4s-.7 3-.8 4.5 0 3 .3 4.3c0 .2.1.3.1.5l.2.4c.1.3.3.6.4.9l.9 1.8c.6 1.2 1.4 2.3 2.2 3.2.4.4.9.8 1.3 1 .4.2.8 0 1.2-.4s.8-1 1.2-1.6.8-1.3 1.1-1.9c.7-1.3 1.6-2.6 2.3-3.9.8-1.3 1.5-2.6 2.2-4l.9-2.1c.3-.7.5-1.5.5-2.2.1-1.5-.1-3-.4-4.4-.3-1.4-.6-2.9-1.1-4.2-.2-.7-.5-1.3-.7-1.9-.1-.1-.1-.3-.2-.4-.1-.1-.1-.2-.2-.3l-.6-.6c-.7-.6-1.8.4-2.9 1.2-2 1.6-4 3.8-5.8 6.1z" fill="#e4b3ab" stroke-width="none" opacity="1" stroke="none"></path><path id="SvgjsPath8946" d="M145.9 102.4c.2-2.1.4-7.4-.8-9-2-2.7-5.6 6.1-6.5 8.8 0 .1-.1.2-.1.2-.1.3.1.7.4.6.4-.2.8-.6 1.2-.8 1.1-.5 1.5.4 1.2 1.7-.4 1.7-1.3 2.7-2.1 4-.1.2 0 .4.2.3 1.5-.9 3.3-4.2 2.9-6.2-.3-1.8-1.8-1.7-2.9-.8.7-1.6 1.4-3.1 2.3-4.5.6-.9 1.1-1.9 2-2 1.1-.2.9.3 1.1 1.7.8 4.6.3 9.7-2.4 13.7-.1.1 0 .2.1.1 2-2.2 3.1-4.7 3.4-7.8z" fill="#d4958a" stroke-width="none" opacity="1" stroke="none"></path></g></g><g id="svga-group-faceshape-wrap"><g id="svga-group-faceshape-single"><path id="SvgjsPath8973" d="M141 88.4c0 30.3-18.9 65.2-41 65.2s-41-34.9-41-65.2 18.9-47 41-47 41 16.6 41 47z" fill="#f3d4cf" stroke-width="none" opacity="1" stroke="none"></path><path id="SvgjsPath8974" d="M100 41.3c-22.1 0-41.1 16.7-41.1 47s19 65.5 41.1 65.5 41.1-35.2 41.1-65.5-19-47-41.1-47zm28.2 13.6.8.8c.3.3.5.6.8.9.3.3.5.6.8.9l.7.9c.2.3.5.6.7.9l.7 1 .3.5.3.5c.4.7.9 1.3 1.2 2l.6 1c.2.3.4.7.5 1l.5 1.1.5 1.1c.2.4.3.7.5 1.1l.4 1.1c2.3 5.9 3.2 12.4 3.3 18.7 0 6.4-.9 12.8-2.6 18.9-.8 3.1-1.9 6.1-3.1 9-1.2 2.9-2.5 5.8-4 8.6s-3.1 5.5-4.8 8.1c-.9 1.3-1.8 2.6-2.7 3.8-.9 1.2-1.9 2.4-3 3.6-2 2.3-4.3 4.4-6.7 6.3-2.4 1.8-5 3.3-7.8 4.3-1.4.5-2.8.9-4.3 1-1.5.2-2.9.2-4.4.1-3-.2-5.9-1.2-8.6-2.6-2.7-1.4-5.3-3.3-7.6-5.4-2.3-2.1-4.4-4.5-6.3-7.1s-3.6-5.3-5-8.1c-1.5-2.8-2.8-5.7-3.9-8.7-.6-1.5-1.1-3-1.6-4.5s-.9-3-1.3-4.6c-.8-3.1-1.4-6.2-1.8-9.3-.4-3.1-.7-6.3-.8-9.4 0-1.6 0-3.1.1-4.7 0-.8.1-1.6.1-2.3l.2-2.3c.3-3.1.9-6.2 1.7-9.1.8-3 1.8-5.9 3.2-8.6.2-.4.3-.7.5-1l.5-1c.4-.7.8-1.3 1.2-2 .4-.6.8-1.3 1.3-1.9l.7-.9.3-.5.4-.4c1.9-2.4 4.1-4.5 6.5-6.3s5-3.3 7.8-4.5 5.7-2 8.6-2.5c.7-.2 1.5-.2 2.2-.3.4-.1.8-.1 1.1-.1l1.1-.1c.8 0 1.5-.1 2.3-.1H102.6l1.1.1c.4 0 .8.1 1.1.1.4 0 .8.1 1.1.1l1.1.2.6.1.6.1 1.1.2c.4.1.7.2 1.1.3s.7.2 1.1.3c1.4.4 2.9.9 4.3 1.5s2.8 1.2 4.1 2c2.7 1.5 5.2 3.3 7.4 5.4l.4.4.5.3z" fill="#c5796d" stroke-width="none" opacity="1" stroke="none"></path></g></g><g id="svga-group-mouth-single-move" transform="matrix(1,0,0,1,0,0)"><g id="svga-group-mouth-single"><path id="SvgjsPath9429" d="M87.3 127.9s2.9-.8 4.7-1.5 3.9-1.3 5.1-.9 2.9 1.5 3.7 1.5c.8-.1 2.2-.9 3.3-1.3 1.1-.4 3.2-.1 5.8 1 2.6 1.1 4.5 1.5 4.5 1.5s-6.2 4.3-8.5 5.1c-1.7.6-8.1.1-9.7-.1s-5.5-2.6-6.7-3.5-2.2-1.8-2.2-1.8z" fill="#da7c87" stroke-width="none" opacity="1" transform="translate(0 3)"></path><path id="SvgjsPath9430" d="M85.1 128c2.1 1.2 4.5 1 6.8.7 1.7-.2 3.3-.3 4.9.4 1 .4 1.9 1.2 3 1.4 2.1.3 4-1.6 6-2 3.1-.5 6.4.2 9.5.1 1 0 .8-1.5-.2-1.4-2.7.4-5.4-.2-8.1.2-2.7.4-5.6 3.2-8.3 2.1-1.9-.8-3.2-1.7-5.4-1.9-2.7-.3-5.3 0-7.9-.7-.5-.1-.8.8-.3 1.1z" fill="#cb5f6c" stroke-width="none" opacity="1" transform="translate(0 3)"></path><path id="SvgjsPath9431" d="M110.4 129.6c-1.3.7-2.5 1.5-3.9 2-1.2.4-2.5.7-3.8.9-.2 0-.1.3 0 .3 2.8.2 6-.8 8-2.8.1-.2-.1-.5-.3-.4z" fill="#e99ca5" stroke-width="none" opacity="1" transform="translate(0 3)"></path><path id="SvgjsPath9432" d="M103.9 126.5c1.2-.2 2.2-.1 3.4.1.2 0 .2-.2.1-.3-1.1-.6-2.4-.5-3.5-.1-.3 0-.2.3 0 .3z" fill="#e99ca5" stroke-width="none" opacity="1" transform="translate(0 3)"></path></g></g><g id="svga-group-eyes-left-move" transform="matrix(1,0,0,1,0,0)"><g id="svga-group-eyes-left"><g id="svga-group-eyesback-left"><path id="SvgjsPath9046" d="M90.9 101.3s-.3-2.5-1-3.8-3.7-4.4-7-5c-4.9-1-9.3 1.7-9.3 1.7s0 2.4 1.5 4.1c1.4 1.7 3.9 2.6 4.9 2.7s4.6.3 6.5 0c1.3-.2 2.8-.2 3.4 0 .5.2 1 .3 1 .3z" fill="#ffffff" stroke-width="none" opacity="1"></path></g><g id="svga-group-eyesiriswrapper-left" transform="matrix(1,0,0,1,0,0)"><g id="svga-group-eyesiriscontrol-left" transform="matrix(1,0,0,1,0,0)"><g id="svga-group-eyesiris-left"><path id="SvgjsPath9008" d="M82 91.5c2.7 0 4.9 2.2 4.9 4.9s-2.2 4.9-4.9 4.9-4.9-2.2-4.9-4.9 2.2-4.9 4.9-4.9z" fill="#66724e" stroke-width="none" opacity="1"></path><path id="SvgjsPath9009" d="M82 93.8c1.4 0 2.6 1.2 2.6 2.6S83.4 99 82 99s-2.6-1.2-2.6-2.6 1.2-2.6 2.6-2.6z" fill="#000000" stroke-width="none" opacity="1"></path><path id="SvgjsPath9010" d="m81.3 94.3-.5-.5c-.2-.2-.4-.3-.7-.3s-.5.1-.7.3c-.2.2-.3.4-.3.7s.1.5.3.7l.5.5c.2.2.4.3.7.3.2 0 .5-.1.7-.3.4-.5.4-1 0-1.4zm2.5 4.4c.8 0 .8-1.3 0-1.3s-.9 1.3 0 1.3z" fill="#ffffff" stroke-width="none" opacity="1"></path></g></g></g><g id="svga-group-eyesfront-left"><path id="SvgjsPath9054" d="M70.73 98.03c0 6.9 4.93 12.5 11.02 12.5s11.02-5.6 11.02-12.5-4.93-12.5-11.02-12.5-11.02 5.59-11.02 12.5zm2.88-3.78s4.42-2.71 9.34-1.75c3.29.64 6.2 3.74 6.95 5.03.75 1.28 1.03 3.82 1.03 3.82s-.53-.14-1.11-.32c-.57-.18-2.05-.19-3.39.04-1.89.32-5.46.18-6.45.04-1-.14-3.49-1.07-4.92-2.75-1.41-1.69-1.45-4.11-1.45-4.11z" fill="#f3d4cf" stroke-width="none" opacity="1" stroke="none"></path><path id="SvgjsPath9055" d="M73.27 94.64c-.1.42-.12.84-.06 1.25-.57-.03-1.21.05-1.59.44-.14.14.01.33.18.3.3-.05.58-.2.88-.27.21-.05.42-.06.63-.05.06.21.13.42.22.63-.18.06-.35.14-.5.21-.38.17-.75.42-.99.76-.11.15.09.28.22.22.35-.16.68-.38 1.03-.55.15-.07.32-.12.49-.18.16.28.35.54.56.8-.41.24-.78.58-.9 1.03-.03.1.09.21.19.15.36-.24.65-.57.96-.88 1.11 1.22 2.67 2.16 3.92 2.57 1.88.62 3.93.72 5.89.62 1.85-.09 4.72-1.14 6.43-.21.07.04.13.02.17-.02l.03-.03c.01-.02.02-.04.02-.06 0-.01.01-.01.01-.03-.1-4.06-2.64-7.49-6.4-8.97-2.08-.82-4.37-1.02-6.58-.69-2.59.39-4.87 1.66-7.54 1.44-.23-.02-.34.3-.18.44.9.88 1.89 1.13 2.91 1.08zm.67-.07c1.99-.32 4.11-1.54 6.09-1.68 5.13-.36 10.05 3 10.7 8.24-2.39-.82-5.13-.1-7.59-.15-2.01-.04-4.14-.32-5.91-1.34-2.21-1.28-2.61-2.93-3.29-5.07z" fill="#000000" stroke-width="none" opacity="1" stroke="none"></path></g></g></g><g id="svga-group-eyes-right-move" transform="matrix(1,0,0,1,0,0)"><g id="svga-group-eyes-right"><g id="svga-group-eyesback-right"><path id="SvgjsPath9047" d="M109.1 101.3s.3-2.5 1-3.8 3.7-4.4 7-5c4.9-1 9.3 1.7 9.3 1.7s0 2.4-1.5 4.1c-1.4 1.7-3.9 2.6-4.9 2.7s-4.6.3-6.5 0c-1.3-.2-2.8-.2-3.4 0-.5.2-1 .3-1 .3z" fill="#ffffff" stroke-width="none" opacity="1"></path></g><g id="svga-group-eyesiriswrapper-right" transform="matrix(1,0,0,1,0,0)"><g id="svga-group-eyesiriscontrol-right" transform="matrix(1,0,0,1,0,0)"><g id="svga-group-eyesiris-right"><path id="SvgjsPath9011" d="M118 91.5c2.7 0 4.9 2.2 4.9 4.9s-2.2 4.9-4.9 4.9-4.9-2.2-4.9-4.9 2.2-4.9 4.9-4.9z" fill="#66724e" stroke-width="none" opacity="1"></path><path id="SvgjsPath9012" d="M118 93.8c1.4 0 2.6 1.2 2.6 2.6S119.4 99 118 99s-2.6-1.2-2.6-2.6 1.2-2.6 2.6-2.6z" fill="#000000" stroke-width="none" opacity="1"></path><path id="SvgjsPath9013" d="m117.4 94.3-.5-.5c-.2-.2-.4-.3-.7-.3s-.5.1-.7.3c-.2.2-.3.4-.3.7s.1.5.3.7l.5.5c.2.2.4.3.7.3.2 0 .5-.1.7-.3.3-.5.4-1 0-1.4zm2.4 4.4c.8 0 .8-1.3 0-1.3s-.8 1.3 0 1.3z" fill="#ffffff" stroke-width="none" opacity="1"></path></g></g></g><g id="svga-group-eyesfront-right"><path id="SvgjsPath9056" d="M118.26 85.53c-6.08 0-11.02 5.6-11.02 12.5s4.93 12.5 11.02 12.5 11.02-5.6 11.02-12.5-4.94-12.5-11.02-12.5zm6.67 12.82c-1.43 1.68-3.92 2.6-4.92 2.75-1 .14-4.56.29-6.45-.04-1.34-.23-2.82-.21-3.39-.04-.57.18-1.11.32-1.11.32s.29-2.53 1.03-3.82c.75-1.28 3.66-4.38 6.95-5.03 4.92-.96 9.34 1.75 9.34 1.75s-.03 2.43-1.45 4.11z" fill="#f3d4cf" stroke-width="none" opacity="1" stroke="none"></path><path id="SvgjsPath9059" d="M129.64 93.58c.15-.15.04-.46-.18-.44-2.68.22-4.96-1.05-7.54-1.44-2.21-.33-4.49-.13-6.58.69-3.76 1.48-6.31 4.91-6.4 8.97 0 .01.01.02.01.03 0 .02.01.04.02.06l.03.03c.04.04.1.06.17.02 1.71-.93 4.58.11 6.43.21 1.96.1 4.02-.01 5.89-.62 1.25-.41 2.81-1.35 3.92-2.57.31.31.6.64.96.88.1.06.22-.04.19-.15-.12-.45-.5-.79-.9-1.03.21-.26.4-.52.56-.8.17.06.34.11.49.18.35.17.68.39 1.03.55.13.06.33-.07.22-.22-.25-.34-.61-.59-.99-.76-.15-.07-.32-.15-.5-.21.09-.21.17-.42.22-.63.21 0 .42.01.63.05.3.07.58.21.88.27.17.03.31-.16.18-.3-.38-.39-1.02-.48-1.59-.44.06-.41.04-.83-.06-1.25 1.02.03 2.01-.22 2.91-1.08zm-6.87 6.06c-1.77 1.03-3.9 1.3-5.91 1.34-2.46.05-5.21-.67-7.59.15.65-5.24 5.56-8.6 10.7-8.24 1.98.14 4.1 1.36 6.09 1.68-.68 2.14-1.08 3.79-3.29 5.07z" fill="#000000" stroke-width="none" opacity="1" stroke="none"></path></g></g></g><g id="svga-group-facehighlight-single"></g><g id="svga-group-eyebrows-left-move" transform="matrix(1,0,0,1,0,0)"><g id="svga-group-eyebrows-left-rotate" transform="matrix(1,1.7453292519943295e-9,-1.7453292519943295e-9,1,1.5003287501258455e-7,-1.402671330197336e-7)"><g id="svga-group-eyebrows-left"><path id="SvgjsPath9107" d="M68.8 86s.1 0 0 0c.1-.1.1-.1.1-.2.3-.6.9-1 1.4-1.3.6-.4 1.3-.9 1.9-1.3h.1c1.5-1.1 4-1.3 6-.8 1.9.2 3.8.8 5 1.3.1 0 .2.1.4.1 1.6.3 3.3.6 4.8 1.2 1.5.3 3 .5 4.4 1h.1c.1-.1.4 0 .4.2.1.2.1.4 0 .7.2 0 .3.1.3.3-.1.5-.3.9-.6 1.3v.1c-.3.8-.9 1.1-1.8 1-.1 0-.2 0-.4-.1-.1.1-.2.1-.3.1-1.6-.1-3.2-.8-4.6-1.4-.9-.4-1.9-.8-2.8-1.3-1.4-.2-2.8-.6-4.2-.9-1.3-.3-2.8-.3-4-.8-.4.1-.9.1-1.3.2-.3.1-.6.2-1 .2-1 .3-2.2.8-3.2.9h-.1c-.1 0-.1.1-.2.1-.2.2-.4.4-.7.5-.1 0-.3-.1-.3-.2 0-.5.3-.7.6-.9z" fill="#2a232b" stroke-width="none" opacity="1"></path><path id="SvgjsPath9108" d="M89.9 85.4c1.3.8 1.5 2.8 1.3 4.2 0 .3-.5.3-.6 0-.2-.7-.2-1.4-.3-2.1-.2-.6-.4-1.1-.7-1.7-.1-.3.1-.6.3-.4zm-3.2-.9c2.1.4 3.4 2.9 3.6 4.8 0 .2-.3.2-.3.1-.2-1-.6-1.9-1.2-2.7-.6-.8-1.4-1.3-2.2-2-.1-.1 0-.3.1-.2zM81 83.1c.9.2 1.9 1 2.6 1.7.7.7 1.3 1.5 1.5 2.4 0 .2-.2.3-.3.2-.5-.8-.9-1.6-1.7-2.2-.7-.6-1.6-1-2.2-1.8-.1-.2-.1-.3.1-.3zM76.3 82c2.3 0 4.7 2.1 5.4 4.2.1.2-.2.3-.3.1-.6-.9-1.2-1.8-2.1-2.5-.9-.7-1.9-1-3-1.4-.3-.1-.3-.4 0-.4zm-5.6 2.4c2.1-2.7 6.2-1.8 7.9.8.1.2-.2.4-.3.2-1-.9-2.1-1.9-3.5-2-1.5-.2-2.7.8-3.9 1.3-.3.1-.3-.2-.2-.3z" fill="#3a353a" stroke-width="none" opacity="1"></path><path id="SvgjsPath9109" d="M92.1 90.3c1.6-.4 2-2.2 2-3.7 0-.3-.4-.3-.5-.1-.2.6-.4 1.3-.7 1.8-.3.5-.7.8-1.1 1 .4-1.2.2-2.6-.6-3.7.6.1 1.1.3 1.7.4.2 0 .3-.2.1-.3-2.7-1-5.6-1.6-8.3-2.4-2.4-.7-4.9-1.4-7.3-1.7-4.6-.6-7.6 2.4-10.3 5.7-.1.1-.2.2-.3.2-.4.3 0 .9.4.6 2.5-1.5 5-2.4 7.9-2.4 3.1.1 6.2 1.1 9.2 2.1 1.6.6 3.1 1.2 4.6 1.8 1 .6 2.1 1 3.2.7zm-20-6.8c1-.7 2.1-1 3.1-1.1.8.4 1.6.8 2.3 1.4.5.5.9 1.1 1.3 1.6-.1 0-.2-.1-.4-.1-3.4-.7-6.6-.4-9.5 1 1-1 2-2 3.2-2.8zm19.3 6c-.5 0-1.1-.1-1.7-.3-1.2-.4-2.4-1-3.6-1.5-.2-.1-.4-.1-.6-.2 0-.9-.3-1.8-.9-2.4-.1-.1-.3 0-.2.2.3.7.7 1.4.9 2.1-.8-.3-1.5-.6-2.3-.8-.7-1.5-2.1-3.1-3.6-3.8-.2-.1-.3.2-.2.3.6.6 1.3 1 1.9 1.7.5.5.9 1.1 1.3 1.7-1-.3-1.9-.6-2.9-.8-.2-.8-.9-1.6-1.5-2.1-.4-.4-1-.8-1.5-1.1.9 0 1.9.1 2.8.3 3.8.8 7.6 1.9 11.4 2.8.8 1.2 1 2.5.7 3.9z" fill="#1b141c" stroke-width="none" opacity="1"></path></g></g></g><g id="svga-group-eyebrows-right-move" transform="matrix(1,0,0,1,0,0)"><g id="svga-group-eyebrows-right-rotate" transform="matrix(1,1.7453292519943295e-9,-1.7453292519943295e-9,1,1.5032446754048578e-7,-2.0871141259704018e-7)"><g id="svga-group-eyebrows-right"><path id="SvgjsPath9110" d="M131.2 86s-.1 0 0 0c-.1-.1-.1-.1-.1-.2-.3-.6-.9-1-1.4-1.3-.6-.4-1.3-.9-1.9-1.3h-.1c-1.5-1.1-4-1.3-6-.8-1.9.2-3.8.8-5 1.3-.1 0-.2.1-.4.1-1.6.3-3.3.6-4.8 1.2-1.5.3-3 .5-4.4 1h-.1c-.1-.1-.4 0-.4.2-.1.2-.1.4 0 .7-.2 0-.3.1-.3.3.1.5.3.9.6 1.3v.1c.3.8.9 1.1 1.8 1 .1 0 .2 0 .4-.1.1.1.2.1.3.1 1.6-.1 3.2-.8 4.6-1.4.9-.4 1.9-.8 2.8-1.3 1.4-.2 2.8-.6 4.2-.9 1.3-.3 2.8-.3 4-.8.4.1.9.1 1.3.2.3.1.6.2 1 .2 1 .3 2.2.8 3.2.9h.1c.1 0 .1.1.2.1.2.2.4.4.7.5.1 0 .3-.1.3-.2 0-.5-.3-.7-.6-.9z" fill="#2a232b" stroke-width="none" opacity="1"></path><path id="SvgjsPath9111" d="M110.1 85.4c-1.3.8-1.5 2.8-1.3 4.2 0 .3.5.3.6 0 .2-.7.2-1.4.3-2.1.2-.6.4-1.1.7-1.7.1-.3-.1-.6-.3-.4zm3.2-.9c-2.1.4-3.4 2.9-3.6 4.8 0 .2.3.2.3.1.2-1 .6-1.9 1.2-2.7.6-.8 1.4-1.3 2.2-2 .1-.1 0-.3-.1-.2zm5.7-1.4c-.9.2-1.9 1-2.6 1.7-.7.7-1.3 1.5-1.5 2.4 0 .2.2.3.3.2.5-.8.9-1.6 1.7-2.2.7-.6 1.6-1 2.2-1.8.1-.2.1-.3-.1-.3zm4.7-1.1c-2.3 0-4.7 2.1-5.4 4.2-.1.2.2.3.3.1.6-.9 1.2-1.8 2.1-2.5.9-.7 1.9-1 3-1.4.3-.1.3-.4 0-.4zm5.6 2.4c-2.1-2.7-6.2-1.8-7.9.8-.1.2.2.4.3.2 1-.9 2.1-1.9 3.5-2 1.5-.2 2.7.8 4 1.3.2.1.2-.2.1-.3z" fill="#3a353a" stroke-width="none" opacity="1"></path><path id="SvgjsPath9112" d="M111.1 89.8c1.5-.6 3.1-1.2 4.6-1.8 2.9-1 6.1-2.1 9.2-2.1 2.9-.1 5.5.9 7.9 2.4.4.2.8-.4.4-.6-.1-.1-.2-.2-.4-.2-2.7-3.3-5.7-6.2-10.3-5.7-2.5.3-4.9 1.1-7.3 1.7-2.8.8-5.6 1.4-8.3 2.4-.2.1-.1.3.1.3.6-.1 1.1-.2 1.7-.4-.8 1-1 2.5-.6 3.7-.4-.1-.8-.4-1.1-1-.3-.6-.4-1.2-.7-1.8-.1-.2-.5-.2-.5.1.1 1.4.5 3.2 2 3.7 1.2.1 2.3-.3 3.3-.7zm19.9-3.5c-3-1.4-6.2-1.7-9.5-1-.1 0-.2.1-.4.1.4-.5.8-1.1 1.3-1.6.7-.6 1.5-.9 2.3-1.4 1.1.1 2.1.5 3.1 1.1 1.3.8 2.3 1.8 3.2 2.8zm-21.6-.7c3.8-.9 7.6-2 11.4-2.8 1-.2 1.9-.3 2.8-.3-.6.3-1.1.7-1.5 1.1-.6.5-1.3 1.3-1.5 2.1-1 .2-2 .5-2.9.8.4-.6.8-1.2 1.3-1.7.6-.6 1.3-1.1 1.9-1.7.1-.1 0-.3-.2-.3-1.5.6-2.9 2.2-3.6 3.8-.8.2-1.6.5-2.3.8.2-.7.5-1.4.9-2.1.1-.2-.1-.3-.2-.2-.6.6-.9 1.6-.9 2.4-.2.1-.4.1-.6.2-1.2.5-2.4 1.1-3.6 1.5-.6.2-1.2.4-1.7.3-.4-1.4-.2-2.7.7-3.9z" fill="#1b141c" stroke-width="none" opacity="1"></path></g></g></g><g id="svga-group-nose-single-move" transform="matrix(1,0,0,1,0,0)"><g id="svga-group-nose-single"><path id="SvgjsPath9086" d="M94.94 88.27c1.09.9 1.93 1.85 2.34 3.25.46 1.58.01 2.89-.24 4.43-.13.83-.12 1.6.01 2.43.3 1.82.37 3.1-.45 4.84-.89 1.9-1.83 3.6-1.99 5.74-.16 2.17.41 4.19 1.48 6.07.08.15.3.02.23-.13-1.42-3.01-1.47-6.54-.07-9.57.83-1.8 1.93-3.43 1.69-5.5-.18-1.62-.5-2.94-.16-4.61.18-.87.35-1.73.26-2.63-.18-1.86-1.29-3.63-2.92-4.55-.15-.08-.32.12-.18.23z" fill="#c5796d" stroke-width="none" opacity="1" transform="translate(0 2)" stroke="none"></path><path id="SvgjsPath9087" d="M93.24 112.44c-1.27 1.59-2.06 6.22.65 7.01 1.79.52 2.16-2.61 4-1.23.99.74 1.24 2.28 2.78 2.12 1.1-.12 1.64-1.17 2.46-1.75 1.49-1.06 2.77 1.2 4.24.13 2.19-1.59.45-5.37-1.21-6.58-.31-.23-.67.27-.41.53 1.04 1.01 2.38 2.98 1.66 4.56-.88 1.93-2.26.03-3.42.11-1.92.13-2.62 3.5-4.74 1.47-.84-.8-1.73-2.54-3.19-1.71-.17.1-.3.26-.43.4-.16.23-.31.48-.43.73-1.44.21-2.24-.2-2.38-1.24-.48-1.46.09-3.07.65-4.41.07-.13-.14-.25-.23-.14z" fill="#c5796d" stroke-width="none" opacity="1" transform="translate(0 2)" stroke="none"></path><path id="SvgjsPath9088" d="M105.73 88.66c-3.59 2.68-1.04 6.83-1.81 10.38-.03.14.16.23.23.1.63-1.1.51-2.29.3-3.5-.48-2.75-.43-4.56 1.48-6.72.11-.13-.04-.37-.2-.26z" fill="#c5796d" stroke-width="none" opacity="1" transform="translate(0 2)" stroke="none"></path><path id="SvgjsPath9089" d="M103.91 102.3c.7 2.53.9 4.93 1.01 7.53 0 .11.18.15.2.03.41-2.5-.08-5.28-1.03-7.61-.04-.11-.21-.07-.18.05z" fill="#c5796d" stroke-width="none" opacity="1" transform="translate(0 2)" stroke="none"></path><path id="SvgjsPath9090" d="M104.48 108.47c-.12-1.87-.5-4.29-1.95-5.6-.25-.23-.69-.08-.68.28.03 1.79.74 3.49.74 5.31 0 1.52-.87 3.56-.29 4.98.12.3.45.5.76.31 1.55-.93 1.52-3.67 1.42-5.28z" fill="#fbe5e2" stroke-width="none" opacity="1" transform="translate(0 2)" stroke="none"></path></g></g><g id="svga-group-hair-front"><path id="SvgjsPath9148" d="M137.8 95.9s3.1-2.7 4.3-7 0-9.9 0-9.9 1.7-5.1-2.2-13.5c0 0 0-6.5-4.3-11.8 0 0 .5-9.1-11.1-14.9 0 0-2.7-3.4-8.7-3.6 0 0-4.1-3.4-10.3-3.4 0 0-4.3-1.7-8.7 0 0 0-3.4-1-5.8 1 0 0-2.9.5-6 3.4 0 0-3.1-.5-5.5 1.2 0 0-2.4.2-6.7 5S67.5 52 67.5 52s-4.6 1-4.8 9.1c0 0-2.9 2.7-2.9 8.4 0 0-2.4 1.9-1.7 7.9 0 0-1.4 6.5.5 11.8 1.9 5.3 3.1 3.1 3.1 3.1s1.9-2.2 1.9-5.8c0 0 2.9-4.3 2.4-8.4 0 0 2.5-1.9 2.5-4.5 0 0 3.6-2.9 3-5.3 0 0 3.7-.2 5.6-5 0 0 3.2.3 8-3 0 0 14.5 9.2 33 .4 0 0 3.2 3 7.3 2.8 0 0 2.6 7 6.3 7 0 0 2.2 4.6 4.3 4.6 0 0-.5 6.3 1.4 9.9.2.1-.5 8.2.4 10.9zm-37.1-74.1s14.3.7 18.7 12.7c0 0-4-6.6-18.7-12.7zm-42.2 11s-18.8 23.4-2.4 50.4c0 0-5.1-14.7-3.1-28.7 2-14 5.5-21.7 5.5-21.7zm-15.1 34S45.9 79 52 88.6c0 0-9.5-8.6-8.6-21.8z" fill="#ddbc9b" stroke-width="none" opacity="1" stroke="none"></path><path id="SvgjsPath9149" d="M69.5 142s11.4 14.3 6.2 32.9c-2.8 10.3-2.3 14.1-.8 19 1.6 4.8-8.9 5.6-11.8 8.4-2.9 2.8-4 5-3.6 7.5 0 0-3.3-5 .3-10.7s-10.5-16.6-14.3-21.4c-2.8-3.5-2.6-12.9-1-19.4.1-7.9 2.6-14.9 4.9-15.7.4 0 8.8 3.6 20.1-.6zm-8.1-56.6c0 .5.2 1 .5 1.4.1.1.2 0 .1-.1-.3-.4-.5-.8-.5-1.2 0-.1-.1-.1-.1-.1zm15.2-42.6c.1-.3-.3-.5-.5-.2-3.4 5.2-5.8 16.9 1.1 20.5.3.2.7-.3.4-.5-5.4-5.1-3.4-13.6-1-19.8zM63.7 85.9c-.9-1.9-1.9-3.8-2.4-5.9-.5-1.9-.5-3.8-.8-5.6-.1-.3-.5-.2-.5 0-.9 3.9.8 8.9 3.3 11.9.2.2.5-.1.4-.4zm4.6-12.8c.4.1.8-.3.5-.6-3.8-3.2-3.7-7-4.7-11.5-.1-.5-.7-.3-.8.1-.4 4.2.7 10.1 5 12zm3.6-5c.3.1.7-.2.4-.5-4.4-4.1-3.3-9.8-3.2-15.3 0-.4-.6-.4-.7-.1-1.7 4.6-1.8 13.5 3.5 15.9zm-6.2 9.3c-1.6-2.6-2.2-5.2-2.8-8.1-.1-.3-.5-.2-.6.1-.2 3 1.1 6 2.9 8.4.2.2.7-.1.5-.4zM83 39.8c.1-.2-.2-.4-.4-.2-3.1 4.9-3.8 15.8 1.1 19.9.3.2.7 0 .5-.4-2.5-5.7-3.9-13.4-1.2-19.3zm23-5.3c5.3 9.3 6.6 18.3-1.4 26.3-.3.3.1.7.4.5 11.1-4.7 6.3-19.8 1.2-27-.1-.1-.3 0-.2.2zm30.4 22.4c-.1-.5-.7-.3-.8.1-.3 2.3-.3 4.6-1 6.9-.7 2.2-2 4.2-3.2 6.2-.2.3.2.6.5.4 3.5-3 5.8-9.1 4.5-13.6zm-12.2-13.2c.8 3.1 2 6 2.1 9.3.2 3.2-.4 6.4-1.2 9.5-.1.3.4.6.6.2 2.7-5.8 2.8-14-1-19.3-.2-.2-.6-.1-.5.3zm15.4 23.5c0-.2-.4-.4-.5-.1-.5 2.8-1.1 5.3-2.5 7.8-.1.2.2.5.4.3 1.8-2.2 2.9-5.1 2.6-8zm1.4 11.6c-1.2 1.7-2.1 3.8-3 5.7-.1.3.2.5.4.3 1.3-1.7 2.5-3.8 2.8-5.9.2-.2-.1-.3-.2-.1zm-46.7-39c0-.2-.3-.2-.3 0-.1 7.3 2.1 14.4 5.8 20.6.1.2.4 0 .3-.2-3.5-6.5-5.1-13.1-5.8-20.4zm21.5-2.7c2.1 3.7 3.6 7.4 3.9 11.7.3 3.4-.6 6.6-.9 9.9 0 .3.5.4.6.2 3.8-6.6 1.4-16.4-3.2-22-.2-.3-.5-.1-.4.2zm-25.5-3.3c.1-.3-.4-.5-.5-.2-3.9 7.3-4.1 21.2 3 26.8.3.3.8-.2.5-.5-6.1-6.6-5.9-18.2-3-26.1zm6.9-.7c.5 2 1.4 3.9 2 5.9.6 2 1 4 1.6 6 .1.3.6.3.6-.1-.3-3.9-1.6-8.7-3.9-11.9 0-.2-.3-.2-.3.1z" fill="#cea57c" stroke-width="none" opacity="1" stroke="none"></path><path id="SvgjsPath9150" d="M53.7 120.5s-.5 13-6.8 24.6-5 24.1 2.7 33.7 14.3 14.8 11.8 20c-2.5 5.2-2.3 8.2-2.3 8.2s.7-4.8 4.8-8.9 2.3-8.6-6.2-15.7c-8.4-7.1-13.2-13.7-11.8-22.5 1.4-8.9 7.5-15.7 8.9-21.2 1.4-5.5-1.1-18.2-1.1-18.2zm7.5 16.6s-.5 14.8-4.1 22.8 1.4 15 6.2 19.4c4.8 4.3 6.6 7.7 7.3 10.7.7 3-2.5 5.2-3.6 6.8 0 0 5.5-1.4 5-7.3s-7.5-9.8-10-19.6c-2.6-9.8 2-12.1-.8-32.8zm7.1 7.5s-.5 9.8 2.1 16.2c2.5 6.4 4 13.2 2.4 20.2 0 0 2.2-4 2.6-14.3.5-10.2-3.5-7.5-7.1-22.1z" fill="#ddbc9b" stroke-width="none" opacity="1" stroke="none"></path><path id="SvgjsPath9151" d="M111.3 36.1c-.2-.2-.6.2-.4.4 2.6 3.6 5 6.6 5.6 11.2.8 5.6-1 11.2-6 14.2-.2.1 0 .3.2.3 9.7-4.5 9.2-20.7.6-26.1zm.8 3.1c-.1-.3-.6-.2-.5.1 2.1 8.4 3.6 18.2-5.5 23.1-.2.1-.1.5.2.5 9.3-4 9-15.7 5.8-23.7zm8.2.8c-.2-.3-.7 0-.5.3 3.4 7 5.8 13.5 2.3 21.1-.2.3.3.6.5.3 4.4-6.8 2.2-15.6-2.3-21.7zm10.1 5.1c-.1-.3-.6-.2-.5.1.4 1.4.8 2.7 1.1 4.1-.9-2.7-2.2-5.2-3.9-7.2-.1-.2-.4 0-.3.2 4.1 7 4.8 13.5 3.4 21.4-.1.4.5.6.6.2.9-2.4 1.4-5 1.3-7.6.1.3.6.2.6-.2.2-3.8-.9-7.6-2.3-11zm-26.2-9.5c-.1-.3-.6-.2-.5.1 1.8 5.6 2.5 11.2 2.4 17 0 .3.4.3.5 0 .8-5.8-.1-11.6-2.4-17.1zm-1 13.5c0-.3-.4-.3-.4 0 0 2.4-.2 4.8-.2 7.1 0 .3.4.3.5.1.4-2.4.4-4.8.1-7.2zM99 60.9c-4.8-7.7-7.1-14.6-6-23.7 0-.2-.2-.2-.3 0-2.1 8-.1 18.1 6 24 .1.1.4-.1.3-.3zm-2.5.6c-3.1-4.2-5.4-8.5-6.1-13.7 0-.3-.5-.2-.5.1.5 5.2 2.4 10.3 6.2 13.9.2.2.6-.1.4-.3zm-9.3-3.7c-3.7-5.5-5-11.4-3.8-18 .1-.3-.3-.4-.4-.1-2 6.3-.7 13.4 3.8 18.4.2.3.6 0 .4-.3zm-8.1 3c-4.9-6.1-3.7-13.1-.6-19.7.1-.2-.2-.5-.4-.2-3.6 6.2-5.4 14.9.7 20.2.2.2.5-.1.3-.3zm58.4 1c0-.3-.6-.4-.6 0 .1 3.2-.6 6.1-1.1 9.2-.1.4.5.7.6.3 1.3-2.9 1.4-6.4 1.1-9.5zm2.3 9.8c0 1.9-.5 3.5-1.1 5.3-.1.3.3.4.4.2 1-1.6 1.3-3.6 1.3-5.5 0-.4-.6-.4-.6 0zM71 49.2c.1-.2-.3-.4-.4-.2-2.2 4.7-1.2 10.1 1 14.6.1.2.5.1.4-.2-1.6-4.8-2.3-9.2-1-14.2zm-5.4 6.3c0-.2-.3-.3-.4 0-.8 4.1 0 8 1.3 11.9.1.2.3.1.3-.1-.8-4-1.7-7.8-1.2-11.8zm-2.9 8.7c0-.3-.5-.3-.5 0-.3 2-.1 4 .7 5.8.1.2.5.1.4-.2-.4-1.8-.7-3.6-.6-5.6zM61 70c0-.3-.4-.3-.5 0-.4 2.8-.1 5.9 1 8.5.1.3.6.1.5-.2-.5-2.8-1-5.5-1-8.3zm34.2-44.6c-12.3-6-27.2 3.4-29.5 16.2-.1.4.4.5.6.2C68.1 36.1 71.4 31 76.6 28c6-3.4 11.8-3.2 18.4-2.1.3.1.6-.4.2-.5zm17.1 5.4c-1.9-2.9-4.9-5.1-8.1-6.6-.3-.1-.5.2-.2.4 3 1.8 5.5 4 8 6.4.2.2.5 0 .3-.2zm-61.6 10c-6.7 9.9-6.1 26-.9 36.3.1.2.4.1.3-.1-4.4-10.7-5.3-25.7.9-36 .1-.2-.2-.4-.3-.2zm15-14.1C55.5 36.8 54.5 52.7 55 66.2c0 .4.5.4.6 0 .9-14.1 1-27.7 10.4-39.2.2-.2-.1-.5-.3-.3zm-6.6 151.2c-2.1-2-4.2-3.7-5.5-6.3-1.7-3.5-1.4-7.5-.5-11.1 1.3-5.5 4.1-10.5 5.3-16 1.1-4.9 1.1-10 0-14.8-.1-.4-.7-.3-.7.1.5 6.4.1 12.5-2.1 18.6-1.7 4.7-4.1 9.2-4.7 14.3-.4 3.8.2 7.8 2.4 10.9 3.2 4.6 10 6.6 10 13.1 0 .1.1.1.1 0 0-3.7-1.8-6.4-4.3-8.8zm11.1-.5c-3.5-7.5-3.8-14-3.4-22.2.2-5.1 0-9.9-2.7-14.3-.1-.2-.5-.1-.4.2 5 12-2.5 25.6 6.1 36.7.2.3.5-.1.4-.4z" fill="#ecd5bd" stroke-width="none" opacity="1" stroke="none"></path></g><g id="svga-group-glasses-single-move" transform="matrix(1,0,0,1,0,0)"><g id="svga-group-glasses-single"><path id="SvgjsPath9524" d="M69.48 90.6c-1.59 2.84-1.5 8.86 1.59 14.13 3.09 5.27 11.87 5.6 17.13 3.01 5.27-2.59 7.36-7.77 7.61-11.62.25-3.84-2.93-6.02-4.68-6.69S79.51 87.42 75 88.09c-4.52.67-5.52 2.51-5.52 2.51z" fill="url(#SvgjsLinearGradient9525)" opacity="1"></path><path id="SvgjsPath9528" d="M130.52 90.6c1.59 2.84 1.5 8.86-1.59 14.13-3.09 5.27-11.87 5.6-17.13 3.01-5.27-2.59-7.36-7.77-7.61-11.62-.25-3.84 2.93-6.02 4.68-6.69s11.62-2.01 16.13-1.34c4.52.67 5.52 2.51 5.52 2.51z" fill="url(#SvgjsLinearGradient9529)" opacity="1"></path><path id="SvgjsPath9532" d="M118.88 110.33c-4.23 0-8.22-1.37-10.93-3.75-4.2-3.68-4.99-8.14-5.37-10.28-.09-.51-.16-.9-.25-1.15-.49-1.38-1.08-2.08-1.75-2.08h-1.16c-.67 0-1.26.7-1.75 2.08-.09.25-.16.65-.25 1.15-.38 2.14-1.17 6.6-5.37 10.29-2.72 2.38-6.7 3.75-10.93 3.75-2.75 0-5.4-.61-7.25-1.67-4.92-2.81-6.19-8.84-6.5-11.31-.4-3.11-1.63-3.71-2-3.82v-5.35c.34-.01 1.37-.05 2.28-.28.06-.01 5.71-1.39 11.19-1.39.9 0 1.76.04 2.54.12 5.16.51 9.31 1.49 12.35 2.21l.67.16c2.11.5 3.6.57 4.29.57.38 0 .58-.02.58-.02h1.51s.2.02.57.02c.7 0 2.18-.07 4.29-.57l.67-.16c3.03-.72 7.19-1.7 12.35-2.21.78-.08 1.63-.12 2.53-.12 5.48 0 11.13 1.37 11.19 1.39.91.23 1.94.27 2.28.28v5.35c-.37.11-1.6.7-2 3.82-.32 2.46-1.58 8.49-6.5 11.31-1.88 1.05-4.52 1.66-7.28 1.66zm2.22-21.71c-.73 0-1.46.02-2.15.05-1.27.05-6.58.44-9.29 1.37-2.72.93-4.54 2.76-4.74 4.76-.24 2.32.52 5.23 2.03 7.8 1.61 2.73 3.73 4.46 6.47 5.27 1.69.5 3.28.74 5.02.74 1.44 0 2.96-.16 4.65-.5 3.01-.59 5.23-2.81 6.6-6.58 1.21-3.32 1.41-8.31-.38-10.59-1.22-1.56-3.9-2.32-8.21-2.32zm-42.2 0c-4.31 0-6.99.76-8.21 2.32-1.78 2.28-1.58 7.27-.38 10.59 1.37 3.77 3.59 5.99 6.6 6.58 1.69.33 3.21.5 4.65.5 1.73 0 3.33-.23 5.02-.74 2.74-.82 4.86-2.54 6.47-5.27 1.51-2.56 2.27-5.48 2.03-7.8-.21-2.01-2.03-3.83-4.74-4.76-2.71-.93-8.02-1.32-9.29-1.37-.69-.03-1.41-.05-2.15-.05z" fill="#26120b" stroke-width="none" opacity="1"></path><path id="SvgjsPath9533" d="M121.17 86.64c5.47 0 11.1 1.37 11.16 1.38.84.21 1.76.26 2.19.28v5.15c-.48.18-1.62.92-2 3.88-.31 2.44-1.57 8.43-6.44 11.22-1.84 1.05-4.46 1.65-7.19 1.65-4.2 0-8.16-1.36-10.86-3.72-4.17-3.65-4.95-8.09-5.33-10.22-.09-.53-.16-.91-.25-1.17-.52-1.46-1.13-2.16-1.86-2.16h-1.16c-.73 0-1.34.71-1.86 2.16-.09.26-.16.64-.25 1.17-.38 2.13-1.16 6.56-5.33 10.22-2.69 2.36-6.65 3.72-10.86 3.72-2.73 0-5.36-.6-7.19-1.65-4.88-2.79-6.13-8.77-6.44-11.22-.38-2.96-1.53-3.7-2-3.88V88.3c.43-.01 1.35-.07 2.19-.28.06-.01 5.69-1.39 11.16-1.38.9 0 1.75.04 2.52.11 5.15.51 9.3 1.49 12.33 2.21l.67.16c2.12.5 3.62.57 4.32.57.36 0 .56-.02.57-.02h1.5s.2.02.59.02c.7 0 2.2-.07 4.32-.57l.67-.16c3.03-.72 7.18-1.7 12.33-2.21.75-.07 1.6-.11 2.5-.11m-2.73 22.09c1.44 0 2.97-.16 4.67-.5 3.05-.6 5.3-2.84 6.69-6.66 1.22-3.35 1.41-8.39-.39-10.7-1.24-1.59-3.96-2.37-8.31-2.36-.65 0-1.36.02-2.15.05-1.28.05-6.6.44-9.32 1.38-2.76.95-4.61 2.81-4.82 4.86-.24 2.34.52 5.29 2.05 7.87 1.63 2.76 3.77 4.5 6.54 5.33 1.69.49 3.29.73 5.04.73m-36.88 0c1.74 0 3.35-.24 5.05-.74 2.78-.83 4.91-2.57 6.54-5.33 1.52-2.58 2.29-5.53 2.05-7.87-.21-2.05-2.06-3.92-4.82-4.86-2.72-.93-8.05-1.32-9.32-1.38-.8-.03-1.5-.05-2.15-.05-4.35 0-7.06.77-8.31 2.36-1.81 2.31-1.61 7.36-.39 10.7 1.39 3.82 3.64 6.06 6.69 6.66 1.69.35 3.22.51 4.66.51m39.61-22.32c-.87 0-1.72.04-2.55.12-5.56.55-9.93 1.64-13.03 2.37-2.07.49-3.52.57-4.27.57-.37 0-.56-.02-.56-.02h-1.52s-.19.02-.56.02c-.74 0-2.2-.08-4.27-.57-3.1-.73-7.47-1.82-13.03-2.37-.82-.08-1.68-.12-2.55-.12-4.99 0-10.28 1.16-11.22 1.39-1.09.27-2.37.27-2.37.27v5.56s1.55.18 2.01 3.74c.46 3.55 2.1 8.84 6.56 11.39 1.88 1.08 4.51 1.68 7.31 1.68 3.84 0 8.01-1.14 11.01-3.78 5.2-4.56 5.2-10.21 5.65-11.48.46-1.28 1-2.01 1.64-2.01h1.16c.64 0 1.18.73 1.64 2.01.46 1.28.46 6.93 5.65 11.48 3.01 2.64 7.17 3.78 11.01 3.78 2.8 0 5.43-.61 7.31-1.68 4.47-2.55 6.11-7.84 6.56-11.39.46-3.55 2.01-3.74 2.01-3.74v-5.56s-1.28 0-2.37-.27c-.93-.23-6.23-1.39-11.22-1.39zm-2.73 22.08c-1.86 0-3.46-.28-4.98-.73-2.66-.79-4.75-2.42-6.41-5.22-1.65-2.8-2.23-5.64-2.01-7.73.22-2.08 2.15-3.8 4.66-4.66 2.51-.86 7.53-1.29 9.26-1.36.69-.03 1.41-.05 2.14-.05 3.24 0 6.66.4 8.12 2.27 1.79 2.3 1.51 7.32.36 10.48s-3.08 5.83-6.51 6.51c-1.74.34-3.26.49-4.63.49zm-36.88 0c-1.37 0-2.89-.15-4.62-.49-3.43-.68-5.37-3.35-6.51-6.51-1.15-3.16-1.44-8.18.36-10.48 1.46-1.87 4.88-2.27 8.12-2.27.73 0 1.45.02 2.14.05 1.72.07 6.75.5 9.26 1.36 2.51.86 4.45 2.58 4.66 4.66.22 2.08-.36 4.93-2.01 7.73-1.65 2.8-3.75 4.43-6.41 5.22-1.53.46-3.13.73-4.99.73z" fill="#070201" stroke-width="none" opacity="1"></path></g></g></g></g></g><rect id="svga-credit-rect" width="200" height="15" x="0" y="185" fill="#ecf0f1" opacity="0.5" style="display: none;"></rect><text id="svga-credit-text" font-family="Avenir Next, Roboto, Helvetica, Arial, sans-serif" font-size="10px" text-anchor="start" font-weight="400" size="10px" anchor="start" weight="400" fill="#333333" x="33.40313720703125" y="182.60824728012085" style="display: none;"><tspan id="SvgjsTspan8923" dy="13" x="33.40313720703125">Created on AvatarMaker.com</tspan></text></g><defs id="SvgjsDefs8875"><linearGradient id="SvgjsLinearGradient9445" x1="118.8" y1="82.84" x2="118.8" y2="112.98" gradientUnits="userSpaceOnUse" class="svga-on-canvas-glasses-gradient-single-0-null"><stop id="SvgjsStop9446" stop-opacity="1" stop-color="#b4c0cf" offset="0" ></stop><stop id="SvgjsStop9447" stop-opacity="0.9374" stop-color="#abbace" offset="0.0626" ></stop><stop id="SvgjsStop9448" stop-opacity="0.679" stop-color="#8aa3ca" offset="0.321" ></stop><stop id="SvgjsStop9449" stop-opacity="0.4305" stop-color="#7393c6" offset="0.5695" ></stop><stop id="SvgjsStop9450" stop-opacity="0.1987" stop-color="#6589c5" offset="0.8013" ></stop><stop id="SvgjsStop9451" stop-opacity="0" stop-color="#6086c4" offset="1" ></stop></linearGradient><linearGradient id="SvgjsLinearGradient9453" x1="81.2" y1="82.84" x2="81.2" y2="112.98" gradientUnits="userSpaceOnUse" class="svga-on-canvas-glasses-gradient-single-1-null"><stop id="SvgjsStop9454" stop-opacity="1" stop-color="#b4c0cf" offset="0" ></stop><stop id="SvgjsStop9455" stop-opacity="0.9374" stop-color="#abbace" offset="0.0626" ></stop><stop id="SvgjsStop9456" stop-opacity="0.679" stop-color="#8aa3ca" offset="0.321" ></stop><stop id="SvgjsStop9457" stop-opacity="0.4305" stop-color="#7393c6" offset="0.5695" ></stop><stop id="SvgjsStop9458" stop-opacity="0.1987" stop-color="#6589c5" offset="0.8013" ></stop><stop id="SvgjsStop9459" stop-opacity="0" stop-color="#6086c4" offset="1" ></stop></linearGradient><linearGradient id="SvgjsLinearGradient9525" x1="82.14" y1="87.906" x2="82.14" y2="109.3074" gradientUnits="userSpaceOnUse" class="svga-on-canvas-glasses-gradient-single-0-null"><stop id="SvgjsStop9526" stop-opacity="1" stop-color="#9bc2cf" offset="0" ></stop><stop id="SvgjsStop9527" stop-opacity="0" stop-color="#6086c4" offset="1" ></stop></linearGradient><linearGradient id="SvgjsLinearGradient9529" x1="-17.86" y1="87.906" x2="-17.86" y2="109.3074" gradientTransform="matrix(-1 0 0 1 100 0)" gradientUnits="userSpaceOnUse" class="svga-on-canvas-glasses-gradient-single-1-null"><stop id="SvgjsStop9530" stop-opacity="1" stop-color="#9bc2cf" offset="0" ></stop><stop id="SvgjsStop9531" stop-opacity="0" stop-color="#6086c4" offset="1" ></stop></linearGradient></defs></svg>